<?xml version="1.0" standalone="no"?>
<!DOCTYPE svg PUBLIC "-//W3C//DTD SVG 20010904//EN"
 "http://www.w3.org/TR/2001/REC-SVG-20010904/DTD/svg10.dtd">
<svg version="1.0" xmlns="http://www.w3.org/2000/svg"
 width="459.000000pt" height="459.000000pt" viewBox="0 0 459.000000 459.000000"
 preserveAspectRatio="xMidYMid meet">
<metadata>
Created by potrace 1.14, written by Peter Selinger 2001-2017
</metadata>
<g transform="translate(0.000000,459.000000) scale(0.100000,-0.100000)"
fill="#000000" stroke="none">
<path d="M2317 4454 c-1 -1 -42 -4 -92 -8 -109 -8 -139 -12 -295 -42 -53 -10
-245 -67 -287 -85 -24 -10 -45 -18 -48 -19 -3 0 -21 -7 -41 -15 -20 -8 -38
-15 -41 -15 -2 0 -47 -21 -99 -47 -113 -55 -174 -106 -205 -169 -31 -64 -23
-165 20 -255 l30 -64 -24 -20 c-14 -11 -94 -62 -179 -113 -172 -103 -178 -110
-173 -207 6 -116 -35 -182 -181 -287 -48 -34 -91 -66 -97 -71 -5 -4 -50 -40
-100 -79 -182 -144 -313 -256 -326 -279 -13 -26 -5 -51 40 -113 l36 -50 2
-119 c3 -143 18 -197 74 -261 35 -39 40 -52 40 -93 0 -26 -3 -59 -6 -73 -4
-14 -8 -59 -10 -100 -7 -125 40 -215 159 -312 l59 -47 27 57 c15 31 40 69 56
84 34 31 124 74 174 83 19 3 49 8 65 11 63 12 307 5 440 -12 73 -10 86 -8 109
19 38 44 131 150 141 161 6 6 42 47 80 91 39 44 75 85 81 91 5 6 30 35 55 64
24 29 51 60 60 69 9 9 96 108 194 221 98 113 187 214 198 225 27 27 -305 -408
-351 -460 -10 -11 -72 -83 -139 -160 -66 -77 -150 -174 -186 -215 -55 -62 -68
-83 -78 -130 -7 -30 -17 -61 -22 -68 -16 -20 -43 -14 -55 13 -6 14 -15 25 -19
26 -5 0 -17 3 -28 5 -63 15 -101 15 -113 1 -34 -40 -2 -274 56 -412 51 -122
153 -283 247 -390 19 -22 61 -69 93 -105 122 -140 135 -139 138 17 2 116 25
223 48 223 7 0 17 -21 23 -52 16 -80 19 -87 52 -174 30 -78 143 -264 160 -264
15 0 29 25 25 45 -54 278 -30 471 83 660 51 85 213 260 234 253 30 -10 33 -36
10 -83 -13 -26 -40 -97 -61 -159 -107 -316 -95 -597 35 -856 59 -117 162 -253
212 -279 19 -10 26 -8 43 9 20 20 23 40 20 151 -2 78 24 181 70 274 112 229
334 432 875 800 232 157 308 217 416 324 158 159 251 307 319 511 31 90 33
100 55 225 20 120 12 370 -16 490 -5 22 -12 51 -15 65 -13 65 -82 247 -133
355 -108 226 -252 430 -404 572 -86 79 -298 243 -337 259 -16 7 -243 10 -655
9 l-630 -1 -84 -43 c-238 -121 -434 -261 -492 -351 l-16 -24 -25 39 c-35 57
-46 93 -44 153 1 28 -1 52 -4 52 -19 0 -90 -65 -92 -83 -3 -48 7 -134 21 -169
12 -32 1 -43 -23 -25 -24 17 -45 116 -40 183 8 105 59 182 154 233 56 30 120
55 120 46 0 -2 -18 -36 -39 -77 -22 -40 -44 -93 -50 -118 -10 -46 -1 -124 16
-141 5 -5 41 23 88 69 44 43 116 102 159 131 157 106 389 200 586 236 47 9
249 14 283 8 44 -9 31 -20 -30 -29 -32 -4 -60 -8 -63 -9 -3 -1 -31 -7 -63 -15
-70 -16 -59 -27 26 -24 84 4 410 4 635 1 100 -2 182 1 182 6 0 13 -151 80
-275 121 -122 42 -321 91 -405 101 -30 4 -57 8 -60 10 -13 8 -364 26 -373 19z
m-776 -1155 l42 -21 -54 -35 c-114 -74 -180 -96 -250 -83 -30 6 -50 1 -106
-26 -69 -34 -110 -57 -157 -87 -47 -31 -26 -3 32 43 108 85 212 185 212 203 0
11 49 28 100 34 25 3 46 6 48 8 8 7 97 -17 133 -36z"/>
</g>
</svg>
